<?xml version="1.0" encoding="UTF-8"?>
<svg xmlns="http://www.w3.org/2000/svg" viewBox="0 0 573.058 573.058"><defs><linearGradient id="og" gradientUnits="userSpaceOnUse" x1="40" y1="60" x2="540" y2="520"><stop offset="0" stop-color="#d8b877"/><stop offset="0.5" stop-color="#b08d4e"/><stop offset="1" stop-color="#8a6d35"/></linearGradient></defs><path fill="url(#og)" fill-rule="nonzero" d="M 45.988281 447.558594 C 46.054688 461.355469 53.433594 472.296875 65.960938 472.238281 C 78.59375 472.175781 85.65625 461.066406 85.585938 446.863281 C 85.527344 434.074219 78.78125 422.023438 65.722656 422.085938 C 52.765625 422.148438 45.921875 433.558594 45.988281 447.558594 M 99.386719 446.292969 C 99.496094 469.054688 85.011719 482.117188 65.265625 482.210938 C 45.09375 482.308594 32.28125 467.765625 32.1875 447.824219 C 32.085938 426.980469 45.820312 412.210938 65.992188 412.113281 C 86.90625 412.015625 99.292969 426.960938 99.386719 446.292969 "/><path fill="url(#og)" fill-rule="nonzero" d="M 123.589844 445.472656 C 125.183594 445.871094 127.308594 445.960938 129.960938 445.945312 C 139.730469 445.902344 145.652344 441.339844 145.613281 433.386719 C 145.578125 425.832031 140.039062 421.832031 131.015625 421.875 C 127.402344 421.890625 124.855469 422.203125 123.476562 422.515625 Z M 110.484375 413.914062 C 115.152344 413.085938 121.625 412.453125 130.4375 412.410156 C 139.992188 412.363281 147.007812 414.242188 151.589844 417.847656 C 155.851562 421.148438 158.640625 426.472656 158.667969 432.820312 C 158.703125 439.261719 156.605469 444.613281 152.585938 448.257812 C 147.40625 453.214844 139.242188 455.570312 130.007812 455.613281 C 127.566406 455.625 125.335938 455.535156 123.636719 455.242188 L 123.757812 480.824219 L 110.804688 480.886719 Z M 110.484375 413.914062 "/><path fill="url(#og)" fill-rule="nonzero" d="M 183.574219 423.03125 L 163.1875 423.128906 L 163.136719 412.757812 L 217.179688 412.496094 L 217.230469 422.871094 L 196.632812 422.96875 L 196.90625 480.472656 L 183.847656 480.535156 Z M 183.574219 423.03125 "/><path fill="url(#og)" fill-rule="nonzero" d="M 238.621094 412.394531 L 238.949219 480.269531 L 225.890625 480.335938 L 225.5625 412.457031 Z M 238.621094 412.394531 "/><path fill="url(#og)" fill-rule="nonzero" d="M 305.1875 477.941406 C 302.113281 479.464844 295.328125 481.007812 286.726562 481.050781 C 264.007812 481.15625 250.136719 467.730469 250.039062 447.085938 C 249.933594 424.726562 266.21875 411.152344 288.089844 411.050781 C 296.691406 411.007812 302.855469 412.691406 305.515625 413.988281 L 302.695312 423.871094 C 299.292969 422.476562 294.617188 421.289062 288.671875 421.320312 C 274.125 421.390625 263.65625 430.101562 263.734375 446.414062 C 263.804688 461.320312 273.085938 470.84375 288.800781 470.765625 C 294.109375 470.742188 299.625 469.707031 303.015625 468.179688 Z M 305.1875 477.941406 "/><path fill="url(#og)" fill-rule="nonzero" d="M 389.585938 477.535156 C 386.515625 479.058594 379.726562 480.601562 371.128906 480.644531 C 348.40625 480.753906 334.539062 467.324219 334.441406 446.679688 C 334.335938 424.324219 350.621094 410.75 372.492188 410.644531 C 381.089844 410.605469 387.257812 412.285156 389.917969 413.582031 L 387.097656 423.46875 C 383.695312 422.074219 379.015625 420.886719 373.070312 420.914062 C 358.527344 420.984375 348.054688 429.695312 348.136719 446.011719 C 348.207031 460.914062 357.488281 470.4375 373.203125 470.363281 C 378.511719 470.335938 384.027344 469.304688 387.417969 467.777344 Z M 389.585938 477.535156 "/><path fill="url(#og)" fill-rule="nonzero" d="M 413.476562 411.558594 L 413.804688 479.433594 L 400.742188 479.496094 L 400.417969 411.621094 Z M 413.476562 411.558594 "/><path fill="url(#og)" fill-rule="nonzero" d="M 442.191406 421.792969 L 421.808594 421.890625 L 421.757812 411.519531 L 475.796875 411.257812 L 475.847656 421.632812 L 455.25 421.730469 L 455.523438 479.234375 L 442.464844 479.296875 Z M 442.191406 421.792969 "/><path fill="url(#og)" fill-rule="nonzero" d="M 502.449219 479.007812 L 502.3125 450.710938 L 479.511719 411.238281 L 494.375 411.167969 L 503.058594 428.550781 C 505.523438 433.574219 507.347656 437.390625 509.277344 442.015625 L 509.492188 442.011719 C 511.273438 437.675781 513.273438 433.4375 515.691406 428.492188 L 524.207031 411.027344 L 538.964844 410.957031 L 515.371094 450.34375 L 515.507812 478.945312 Z M 502.449219 479.007812 "/><path fill="url(#og)" fill-rule="nonzero" d="M 32.1875 238.914062 C 76.765625 185.933594 128.335938 143.53125 191.945312 116.289062 C 190.285156 117.828125 188.566406 119.316406 186.976562 120.925781 C 185.1875 122.738281 183.734375 124.945312 181.753906 126.496094 C 169.957031 135.710938 161.109375 147.507812 153.988281 160.339844 C 149.765625 167.949219 144.011719 173.074219 137.214844 177.882812 C 113.707031 194.527344 92.292969 213.613281 72.355469 234.390625 C 69.257812 237.617188 68.601562 239.980469 72.183594 243.664062 C 100.5625 272.867188 131.589844 298.707031 166.777344 319.398438 C 198.1875 337.875 231.644531 350.542969 268.007812 354.554688 C 324.292969 360.761719 370.636719 332.519531 392.230469 285.613281 C 411.199219 244.410156 402.152344 192.152344 370.398438 159.582031 C 367.144531 156.246094 363.476562 153.308594 360 150.1875 C 360.453125 149.597656 360.90625 149.011719 361.359375 148.421875 C 364.816406 149.910156 368.398438 151.164062 371.710938 152.925781 C 384.902344 159.9375 398.078125 166.980469 411.082031 174.324219 C 413.429688 175.652344 415.703125 178.148438 416.726562 180.636719 C 438.113281 232.726562 432.824219 281.894531 398.875 327.027344 C 376.78125 356.394531 346.714844 373.976562 310.621094 380.316406 C 287.550781 384.367188 264.351562 382.617188 241.429688 377.855469 C 197.921875 368.8125 159.25 349.214844 123.203125 323.796875 C 97.886719 305.945312 74.863281 285.480469 53.476562 263.15625 C 46.289062 255.652344 39.734375 247.546875 32.1875 238.914062 "/><path fill="url(#og)" fill-rule="nonzero" d="M 538.964844 239.207031 C 495.550781 290.953125 445.199219 332.613281 383.550781 359.582031 C 392.117188 350.003906 400.796875 340.519531 409.179688 330.78125 C 412.238281 327.222656 415.152344 323.316406 417.128906 319.097656 C 421.132812 310.539062 427.785156 304.980469 435.324219 299.699219 C 458.285156 283.609375 478.960938 264.828125 498.515625 244.753906 C 502.605469 240.554688 503.171875 237.917969 498.695312 233.335938 C 460.664062 194.375 418.609375 161.078125 367.929688 139.957031 C 339.089844 127.941406 309.140625 121.242188 277.621094 122.910156 C 226.113281 125.628906 179.210938 167.621094 171.183594 218.621094 C 165.175781 256.800781 174.929688 290.351562 201.214844 318.929688 C 203.378906 321.28125 205.117188 324.019531 207.050781 326.582031 C 206.742188 326.957031 206.429688 327.332031 206.121094 327.710938 C 202.691406 326.144531 199.152344 324.777344 195.855469 322.972656 C 183.945312 316.464844 172.039062 309.945312 160.328125 303.089844 C 157.996094 301.726562 155.933594 299.144531 154.765625 296.648438 C 131.53125 246.996094 142.316406 182.097656 180.289062 142.058594 C 214.910156 105.550781 257.546875 91.664062 307.078125 96.820312 C 359.488281 102.277344 405.257812 124.132812 447.667969 153.957031 C 481.800781 177.960938 512.292969 205.996094 538.964844 239.207031 "/><path fill="url(#og)" fill-rule="nonzero" d="M 366.113281 282.886719 L 286.765625 328.699219 L 207.414062 282.886719 L 207.414062 191.261719 L 286.765625 145.453125 L 366.113281 191.261719 Z M 286.804688 133.652344 L 197.132812 185.425781 L 197.132812 288.96875 L 286.804688 340.742188 L 376.480469 288.96875 L 376.480469 185.425781 Z M 286.804688 133.652344 "/><path fill="url(#og)" fill-rule="nonzero" d="M 269.296875 293.246094 L 228.671875 270.570312 L 228.503906 203.535156 L 269.011719 179.789062 Z M 280.679688 300.597656 L 280.636719 300.574219 L 280.636719 173.609375 L 280.679688 173.585938 L 280.679688 160.703125 L 217.316406 197.078125 L 217.511719 276.976562 L 280.679688 313.445312 Z M 280.679688 300.597656 "/><path fill="url(#og)" fill-rule="nonzero" d="M 345.074219 256.058594 L 345.109375 270.859375 L 302.492188 295.324219 L 302.492188 179.308594 L 344.945312 203.824219 L 344.980469 218.09375 L 356.152344 218.09375 L 356.101562 197.417969 L 289.96875 159.234375 L 289.96875 315.394531 L 356.296875 277.316406 L 356.246094 256.058594 Z M 345.074219 256.058594 "/></svg>
