<?xml version="1.0" encoding="UTF-8"?>
<svg xmlns="http://www.w3.org/2000/svg" viewBox="22 82 527 312"><defs><linearGradient id="og" gradientUnits="userSpaceOnUse" x1="40" y1="92" x2="535" y2="382"><stop offset="0" stop-color="#d8b877"/><stop offset="0.5" stop-color="#b08d4e"/><stop offset="1" stop-color="#8a6d35"/></linearGradient></defs><path fill="url(#og)" fill-rule="nonzero" d="M 32.1875 238.914062 C 76.765625 185.933594 128.335938 143.53125 191.945312 116.289062 C 190.285156 117.828125 188.566406 119.316406 186.976562 120.925781 C 185.1875 122.738281 183.734375 124.945312 181.753906 126.496094 C 169.957031 135.710938 161.109375 147.507812 153.988281 160.339844 C 149.765625 167.949219 144.011719 173.074219 137.214844 177.882812 C 113.707031 194.527344 92.292969 213.613281 72.355469 234.390625 C 69.257812 237.617188 68.601562 239.980469 72.183594 243.664062 C 100.5625 272.867188 131.589844 298.707031 166.777344 319.398438 C 198.1875 337.875 231.644531 350.542969 268.007812 354.554688 C 324.292969 360.761719 370.636719 332.519531 392.230469 285.613281 C 411.199219 244.410156 402.152344 192.152344 370.398438 159.582031 C 367.144531 156.246094 363.476562 153.308594 360 150.1875 C 360.453125 149.597656 360.90625 149.011719 361.359375 148.421875 C 364.816406 149.910156 368.398438 151.164062 371.710938 152.925781 C 384.902344 159.9375 398.078125 166.980469 411.082031 174.324219 C 413.429688 175.652344 415.703125 178.148438 416.726562 180.636719 C 438.113281 232.726562 432.824219 281.894531 398.875 327.027344 C 376.78125 356.394531 346.714844 373.976562 310.621094 380.316406 C 287.550781 384.367188 264.351562 382.617188 241.429688 377.855469 C 197.921875 368.8125 159.25 349.214844 123.203125 323.796875 C 97.886719 305.945312 74.863281 285.480469 53.476562 263.15625 C 46.289062 255.652344 39.734375 247.546875 32.1875 238.914062 "/><path fill="url(#og)" fill-rule="nonzero" d="M 538.964844 239.207031 C 495.550781 290.953125 445.199219 332.613281 383.550781 359.582031 C 392.117188 350.003906 400.796875 340.519531 409.179688 330.78125 C 412.238281 327.222656 415.152344 323.316406 417.128906 319.097656 C 421.132812 310.539062 427.785156 304.980469 435.324219 299.699219 C 458.285156 283.609375 478.960938 264.828125 498.515625 244.753906 C 502.605469 240.554688 503.171875 237.917969 498.695312 233.335938 C 460.664062 194.375 418.609375 161.078125 367.929688 139.957031 C 339.089844 127.941406 309.140625 121.242188 277.621094 122.910156 C 226.113281 125.628906 179.210938 167.621094 171.183594 218.621094 C 165.175781 256.800781 174.929688 290.351562 201.214844 318.929688 C 203.378906 321.28125 205.117188 324.019531 207.050781 326.582031 C 206.742188 326.957031 206.429688 327.332031 206.121094 327.710938 C 202.691406 326.144531 199.152344 324.777344 195.855469 322.972656 C 183.945312 316.464844 172.039062 309.945312 160.328125 303.089844 C 157.996094 301.726562 155.933594 299.144531 154.765625 296.648438 C 131.53125 246.996094 142.316406 182.097656 180.289062 142.058594 C 214.910156 105.550781 257.546875 91.664062 307.078125 96.820312 C 359.488281 102.277344 405.257812 124.132812 447.667969 153.957031 C 481.800781 177.960938 512.292969 205.996094 538.964844 239.207031 "/><path fill="url(#og)" fill-rule="nonzero" d="M 366.113281 282.886719 L 286.765625 328.699219 L 207.414062 282.886719 L 207.414062 191.261719 L 286.765625 145.453125 L 366.113281 191.261719 Z M 286.804688 133.652344 L 197.132812 185.425781 L 197.132812 288.96875 L 286.804688 340.742188 L 376.480469 288.96875 L 376.480469 185.425781 Z M 286.804688 133.652344 "/><path fill="url(#og)" fill-rule="nonzero" d="M 269.296875 293.246094 L 228.671875 270.570312 L 228.503906 203.535156 L 269.011719 179.789062 Z M 280.679688 300.597656 L 280.636719 300.574219 L 280.636719 173.609375 L 280.679688 173.585938 L 280.679688 160.703125 L 217.316406 197.078125 L 217.511719 276.976562 L 280.679688 313.445312 Z M 280.679688 300.597656 "/><path fill="url(#og)" fill-rule="nonzero" d="M 345.074219 256.058594 L 345.109375 270.859375 L 302.492188 295.324219 L 302.492188 179.308594 L 344.945312 203.824219 L 344.980469 218.09375 L 356.152344 218.09375 L 356.101562 197.417969 L 289.96875 159.234375 L 289.96875 315.394531 L 356.296875 277.316406 L 356.246094 256.058594 Z M 345.074219 256.058594 "/></svg>
